<svg width="15" height="15" viewBox="0 0 15 15" fill="none" xmlns="http://www.w3.org/2000/svg">
<!-- LinkedIn -->
<path id ="linkedIn" d="M13.0996 0.75C13.4212 0.75 13.6934 0.861328 13.916 1.08398C14.1387 1.2819 14.25 1.54167 14.25 1.86328V13.7754C14.25 14.097 14.1387 14.3815 13.916 14.6289C13.6934 14.8763 13.4212 15 13.0996 15H1.22461C0.902995 15 0.61849 14.8763 0.371094 14.6289C0.123698 14.3815 0 14.097 0 13.7754V1.86328C0 1.54167 0.111328 1.2819 0.333984 1.08398C0.58138 0.861328 0.878255 0.75 1.22461 0.75H13.0996ZM4.41602 12.625V6.2793H2.375V12.625H4.41602ZM2.67188 5.01758C2.86979 5.21549 3.12956 5.31445 3.45117 5.31445C3.77279 5.31445 4.03255 5.21549 4.23047 5.01758C4.45312 4.79492 4.56445 4.53516 4.56445 4.23828C4.56445 3.91667 4.46549 3.6569 4.26758 3.45898C4.06966 3.23633 3.8099 3.125 3.48828 3.125C3.16667 3.125 2.89453 3.23633 2.67188 3.45898C2.47396 3.6569 2.375 3.91667 2.375 4.23828C2.375 4.53516 2.47396 4.79492 2.67188 5.01758ZM11.875 12.625V8.91406C11.875 7.9987 11.6523 7.30599 11.207 6.83594C10.7865 6.36589 10.2298 6.13086 9.53711 6.13086C8.79492 6.13086 8.17643 6.47721 7.68164 7.16992V6.2793H5.64062V12.625H7.68164V9.02539C7.68164 8.77799 7.70638 8.60482 7.75586 8.50586C7.95378 8.01107 8.30013 7.76367 8.79492 7.76367C9.48763 7.76367 9.83398 8.22135 9.83398 9.13672V12.625H11.875Z" fill="#282828"/>

<!-- logo -->
<g id = "logo">
  <path d="M19.5299 52.773C23.7897 52.773 27.3624 51.7166 30.2481 49.6039C33.151 47.4911 35.195 44.6312 36.3802 41.0241L29.3206 39.066C28.6335 41.2989 27.4741 43.0424 25.8423 44.2963C24.2105 45.5502 22.1064 46.1771 19.5299 46.1771C16.0087 46.1771 13.3549 45.0263 11.5685 42.7246C9.79929 40.4057 8.91469 37.3139 8.91469 33.4492C8.91469 29.5844 9.79929 26.5012 11.5685 24.1996C13.3549 21.8807 16.0087 20.7213 19.5299 20.7213C22.1064 20.7213 24.2105 21.3482 25.8423 22.6021C27.4741 23.8389 28.6335 25.5823 29.3206 27.8324L36.3802 25.8743C35.195 22.2672 33.151 19.4073 30.2481 17.2945C27.3624 15.1818 23.7897 14.1255 19.5299 14.1255C15.8197 14.1255 12.6163 14.9328 9.91953 16.5474C7.23997 18.162 5.17018 20.4207 3.71016 23.3236C2.26732 26.2264 1.5459 29.6016 1.5459 33.4492C1.5459 37.2968 2.26732 40.672 3.71016 43.5748C5.17018 46.4777 7.23997 48.7364 9.91953 50.351C12.6163 51.9656 15.8197 52.773 19.5299 52.773Z" fill="#E6E6E6"/>
  <path d="M19.81 46.525C22.7267 46.525 25.1242 45.7842 27.0025 44.3025C28.8925 42.8092 30.1933 40.8142 30.905 38.3175L27.7375 37.4775C27.2242 39.3442 26.3025 40.8258 24.9725 41.9225C23.6542 43.0075 21.9333 43.55 19.81 43.55C17.9317 43.55 16.3625 43.1242 15.1025 42.2725C13.8425 41.4208 12.8975 40.2308 12.2675 38.7025C11.6375 37.1742 11.3283 35.4067 11.34 33.4C11.3517 31.3817 11.6725 29.6142 12.3025 28.0975C12.9325 26.5692 13.8717 25.3792 15.12 24.5275C16.3683 23.6758 17.9317 23.25 19.81 23.25C21.9333 23.25 23.6542 23.7925 24.9725 24.8775C26.3025 25.9625 27.2242 27.4442 27.7375 29.3225L30.905 28.4825C30.1933 25.9742 28.8925 23.9792 27.0025 22.4975C25.1242 21.0158 22.7267 20.275 19.81 20.275C17.3017 20.275 15.1667 20.8292 13.405 21.9375C11.655 23.0458 10.325 24.5858 9.415 26.5575C8.505 28.5292 8.05 30.81 8.05 33.4C8.05 35.99 8.505 38.2708 9.415 40.2425C10.325 42.2142 11.655 43.7542 13.405 44.8625C15.1667 45.9708 17.3017 46.525 19.81 46.525ZM40.3498 46H43.4823V36.515C43.4823 35.395 43.634 34.3158 43.9373 33.2775C44.2406 32.2392 44.8531 31.3933 45.7748 30.74C46.4281 30.2617 47.1456 29.9817 47.9273 29.9C48.7206 29.8183 49.444 29.8592 50.0973 30.0225V27.1C49.2573 26.9133 48.3356 26.9133 47.3323 27.1C46.329 27.2867 45.4656 27.6717 44.7423 28.255C44.1123 28.6983 43.5756 29.3108 43.1323 30.0925V27.1H40.3498V46ZM60.5547 46.525C62.3863 46.525 64.0372 46.07 65.5072 45.16C66.9772 44.2383 68.0855 42.9433 68.8322 41.275L65.8397 40.2425C64.7547 42.4592 62.9463 43.5675 60.4147 43.5675C58.6763 43.5675 57.3113 43.0367 56.3197 41.975C55.3397 40.9017 54.7855 39.385 54.6572 37.425H69.1472C69.2405 35.185 68.9488 33.2542 68.2722 31.6325C67.6072 30.0108 66.6038 28.7625 65.2622 27.8875C63.9322 27.0125 62.3163 26.575 60.4147 26.575C58.583 26.575 56.9847 26.9892 55.6197 27.8175C54.2547 28.6342 53.193 29.8008 52.4347 31.3175C51.688 32.8225 51.3147 34.6075 51.3147 36.6725C51.3147 38.6442 51.6938 40.3708 52.4522 41.8525C53.2222 43.3225 54.3013 44.4717 55.6897 45.3C57.078 46.1167 58.6997 46.525 60.5547 46.525ZM60.5197 29.375C63.728 29.375 65.5247 31.2242 65.9097 34.9225H54.7097C54.9313 33.1258 55.5322 31.755 56.5122 30.81C57.4922 29.8533 58.828 29.375 60.5197 29.375ZM77.3741 46.525C80.5241 46.525 82.8574 45.37 84.3741 43.06V46H87.1391V34.31C87.1391 33.5633 87.1041 32.8517 87.0341 32.175C86.9641 31.4867 86.7949 30.8508 86.5266 30.2675C85.9899 29.0308 85.1032 28.1092 83.8666 27.5025C82.6299 26.8842 81.1599 26.575 79.4566 26.575C77.3216 26.575 75.5949 27.0475 74.2766 27.9925C72.9699 28.9375 72.0949 30.2383 71.6516 31.895L74.6091 32.7875C74.9474 31.6325 75.5482 30.7925 76.4116 30.2675C77.2749 29.7425 78.2782 29.48 79.4216 29.48C81.0549 29.48 82.2274 29.8475 82.9391 30.5825C83.6624 31.3058 84.0416 32.42 84.0766 33.925C82.6766 34.1233 81.2066 34.3333 79.6666 34.555C78.1382 34.765 76.7791 35.0275 75.5891 35.3425C74.1541 35.7625 73.0224 36.4217 72.1941 37.32C71.3657 38.2067 70.9516 39.3967 70.9516 40.89C70.9516 41.905 71.1907 42.8383 71.6691 43.69C72.1591 44.5417 72.8766 45.23 73.8216 45.755C74.7782 46.2683 75.9624 46.525 77.3741 46.525ZM77.8466 43.9175C76.5049 43.9175 75.5366 43.6083 74.9416 42.99C74.3466 42.36 74.0491 41.6542 74.0491 40.8725C74.0491 39.9858 74.3407 39.3092 74.9241 38.8425C75.5191 38.3642 76.2074 38.0025 76.9891 37.7575C77.9107 37.5008 78.9841 37.285 80.2091 37.11C81.4341 36.935 82.7116 36.76 84.0416 36.585C84.0416 37.0167 84.0182 37.5067 83.9716 38.055C83.9366 38.6033 83.8549 39.105 83.7266 39.56C83.5049 40.7267 82.8866 41.7475 81.8716 42.6225C80.8682 43.4858 79.5266 43.9175 77.8466 43.9175ZM101.542 46V43.3225C100.247 43.5208 99.1382 43.5558 98.2166 43.4275C97.3066 43.2992 96.6416 42.8617 96.2216 42.115C95.9999 41.7183 95.8774 41.2517 95.8541 40.715C95.8424 40.1667 95.8366 39.5017 95.8366 38.72V29.6725H101.542V27.1H95.8366V21.85H92.7216V27.1H88.8891V29.6725H92.7216V38.86C92.7216 39.84 92.7332 40.715 92.7566 41.485C92.7916 42.2433 92.9957 42.99 93.3691 43.725C93.8124 44.5767 94.4599 45.2067 95.3116 45.615C96.1632 46.0117 97.1316 46.2275 98.2166 46.2625C99.3132 46.3092 100.422 46.2217 101.542 46ZM105.029 23.7575H108.144V20.5375H105.029V23.7575ZM105.029 46H108.144V27.1H105.029V46ZM114.497 46H117.612V29.6725H122.582V27.1H117.612V25.5775C117.612 23.7692 118.528 22.865 120.36 22.865H122.582V20.275H120.185C119.473 20.275 118.709 20.345 117.892 20.485C117.075 20.6133 116.34 21.0333 115.687 21.745C115.127 22.3517 114.789 23.0458 114.672 23.8275C114.555 24.5975 114.497 25.3442 114.497 26.0675V27.1H111.295V29.6725H114.497V46ZM127.3 54.4H130.328L140.618 27.1H137.45L131.92 41.975L126.023 27.1H122.75L130.415 45.93L127.3 54.4ZM140.565 46H143.995V42.57H140.565V46Z" fill="#111111"/>
</g>

<!-- arrow -->
<path id = "arrow" d="M10.5225 14.46L16.46 8.52246C16.695 8.2998 16.8125 8.02148 16.8125 7.6875C16.8125 7.35352 16.695 7.0752 16.46 6.85254L10.5225 0.915039C10.2998 0.680013 10.0215 0.5625 9.6875 0.5625C9.35352 0.5625 9.0752 0.680013 8.85254 0.915039C8.61751 1.1377 8.5 1.41602 8.5 1.75C8.5 2.08398 8.61751 2.3623 8.85254 2.58496L12.749 6.5H1.375C1.04102 6.5 0.75651 6.61751 0.521484 6.85254C0.298828 7.0752 0.1875 7.35352 0.1875 7.6875C0.1875 8.02148 0.298828 8.30599 0.521484 8.54102C0.75651 8.76367 1.04102 8.875 1.375 8.875H12.749L8.85254 12.79C8.72884 12.9014 8.63607 13.0312 8.57422 13.1797C8.52474 13.3281 8.5 13.4766 8.5 13.625C8.5 13.7734 8.52474 13.9219 8.57422 14.0703C8.63607 14.2188 8.72884 14.3486 8.85254 14.46C9.0752 14.695 9.35352 14.8125 9.6875 14.8125C10.0215 14.8125 10.2998 14.695 10.5225 14.46Z" fill="white"/>

<!-- arrow-small -->
<path id ="arrow-small" d="M0.375 0.894531L0.949219 0.375L5.625 4.75L0.949219 9.125L0.375 8.60547L4.47656 4.75L0.375 0.894531Z" fill="#4D4D4D"/>

<!-- arrow-black -->
<path id ="arrow-black" d="M8.70312 11.7031L13.7031 6.70312C13.901 6.51562 14 6.28125 14 6C14 5.71875 13.901 5.48438 13.7031 5.29688L8.70312 0.296875C8.51562 0.0989583 8.28125 0 8 0C7.71875 0 7.48438 0.0989583 7.29688 0.296875C7.09896 0.484375 7 0.71875 7 1C7 1.28125 7.09896 1.51562 7.29688 1.70312L10.5781 5H1C0.71875 5 0.479167 5.09896 0.28125 5.29688C0.09375 5.48438 0 5.71875 0 6C0 6.28125 0.09375 6.52083 0.28125 6.71875C0.479167 6.90625 0.71875 7 1 7H10.5781L7.29688 10.2969C7.19271 10.3906 7.11458 10.5 7.0625 10.625C7.02083 10.75 7 10.875 7 11C7 11.125 7.02083 11.25 7.0625 11.375C7.11458 11.5 7.19271 11.6094 7.29688 11.7031C7.48438 11.901 7.71875 12 8 12C8.28125 12 8.51562 11.901 8.70312 11.7031Z" fill="#111111"/>

<!-- facebook -->
<path id = "facebook" d="M4.75 5.5H7.125L6.82812 7.875H4.75V15H1.66992V7.875H0V5.5H1.66992V3.9043C1.66992 2.86523 1.92969 2.08594 2.44922 1.56641C2.96875 1.02214 3.83464 0.75 5.04688 0.75H7.125V3.125H5.86328C5.39323 3.125 5.08398 3.19922 4.93555 3.34766C4.81185 3.49609 4.75 3.74349 4.75 4.08984V5.5Z" fill="#282828"/>

<!-- hand -->
<g id="hand">
  <path d="M11.1619 20.145C10.4212 19.5507 3.54374 12.8625 3.46686 12.7894C3.16311 12.4857 2.97186 12.1707 2.91936 11.8819C2.86499 11.5819 2.95686 11.3194 3.20061 11.0757C3.42749 10.8488 3.70499 10.7288 4.00311 10.7288C4.36686 10.7288 4.73999 10.9013 5.05124 11.2144L8.16936 14.2107C8.22374 14.2632 8.29499 14.2894 8.36436 14.2894C8.41958 14.2895 8.47361 14.2733 8.51965 14.2428C8.56569 14.2123 8.60169 14.1689 8.62313 14.118C8.64457 14.0672 8.65049 14.0111 8.64014 13.9568C8.6298 13.9026 8.60365 13.8526 8.56499 13.8132L3.58686 8.67191C3.08811 8.17316 2.85374 7.41004 3.44624 6.81754C3.67311 6.59066 3.95061 6.47066 4.24874 6.47066C4.61249 6.47066 4.98561 6.64316 5.29686 6.95629L10.3894 11.9213C10.4437 11.9738 10.515 12.0019 10.5862 12.0019C10.6575 12.0019 10.7306 11.9738 10.785 11.9194C10.8937 11.8107 10.8956 11.6344 10.7869 11.5238L4.67061 5.25379C4.38749 4.97066 4.21686 4.63129 4.18686 4.30129C4.15874 3.96566 4.27686 3.65441 4.52999 3.40129C4.75686 3.17441 5.03436 3.05441 5.33249 3.05441C5.69624 3.05441 6.06936 3.22691 6.38061 3.53816L12.6187 9.62066C12.6731 9.67316 12.7444 9.70129 12.8156 9.70129C12.8869 9.70129 12.96 9.67316 13.0144 9.61879C13.1231 9.51004 13.125 9.33379 13.0162 9.22316L8.48624 4.56754C8.20124 4.28254 8.03061 3.94504 8.00249 3.61504C7.97436 3.27941 8.09249 2.96816 8.34561 2.71504C8.57249 2.48816 8.84999 2.36816 9.14811 2.36816C9.51186 2.36816 9.88499 2.54066 10.1962 2.85379C11.8575 4.48504 16.1944 8.75066 16.3406 8.90816C16.8975 9.29254 17.01 8.71129 17.0381 8.33441C17.07 7.89566 16.5675 6.36379 16.86 4.98566C17.3512 3.15379 18.7669 3.45379 18.7987 3.46879C19.575 3.83254 19.4269 4.37629 19.1512 5.46941L19.1231 5.68504C18.8344 7.11379 20.8181 11.3475 20.9644 11.6644C21.7425 13.3669 22.6387 16.8188 19.6706 19.7869C16.4175 23.04 12.39 21.3732 11.1619 20.145Z" fill="url(#paint0_radial_1_149)"/>
  <path d="M15.3356 21.9713C13.3406 21.9713 11.6437 21.0169 10.9743 20.355C10.3725 19.8638 6.57372 16.1963 3.47997 13.1944C3.35435 13.0725 3.28122 13.0032 3.27372 12.9938C2.9231 12.6432 2.7056 12.2775 2.64372 11.9325C2.57247 11.5407 2.69435 11.1863 3.00185 10.8769C3.2831 10.5957 3.6281 10.4475 4.0031 10.4475C4.44372 10.4475 4.88622 10.65 5.24997 11.0157L8.36435 14.0082L3.38435 8.86691C2.8106 8.29316 2.52185 7.34254 3.24747 6.61879C3.52872 6.33754 3.87372 6.18941 4.24872 6.18941C4.68935 6.18941 5.13185 6.39191 5.4956 6.75754L10.5843 11.7188L4.46997 5.45066C4.14372 5.12441 3.9431 4.72504 3.90747 4.32754C3.87185 3.90379 4.0181 3.51566 4.33122 3.20254C4.61247 2.92129 4.95747 2.77316 5.33247 2.77316C5.77122 2.77316 6.21372 2.97379 6.57935 3.33941L12.8156 9.42004L8.2856 4.76441C7.95747 4.43629 7.75685 4.03691 7.7231 3.63941C7.68747 3.21754 7.83372 2.82941 8.14685 2.51629C8.4281 2.23504 8.7731 2.08691 9.1481 2.08691C9.58872 2.08691 10.0312 2.28941 10.395 2.65504L11.7468 3.98066C14.1562 6.34316 16.17 8.32129 16.3856 8.54254C16.4906 8.62691 16.6275 8.65879 16.6856 8.63066C16.7231 8.61191 16.7643 8.52566 16.7568 8.34379C16.7456 8.02504 16.7006 7.62941 16.6537 7.21129C16.56 6.37129 16.4625 5.50129 16.5843 4.92754C16.8506 3.93191 17.3737 3.51004 17.7637 3.32816C18.3 3.08066 18.8193 3.16691 18.9187 3.21379C19.8937 3.67129 19.7006 4.43629 19.4343 5.49754L19.4287 5.52379L19.3987 5.74316C19.2037 6.70316 20.205 9.35629 21.2062 11.5182L21.2212 11.5482C21.8906 13.0107 23.0962 16.7625 19.8712 19.9875C18.3881 21.4669 16.7831 21.9713 15.3356 21.9713ZM4.0031 11.01C3.78185 11.01 3.57185 11.1019 3.39935 11.2744C3.22122 11.4525 3.15935 11.625 3.19685 11.8313C3.2381 12.0582 3.40497 12.3282 3.6656 12.5907C3.66747 12.5925 3.74247 12.6657 3.87185 12.7894C8.2631 17.0513 10.9143 19.5844 11.3381 19.9257L11.3606 19.9463C12.3956 20.9813 16.2412 22.8188 19.4718 19.5882C22.4475 16.6125 21.3281 13.1382 20.7075 11.7807L20.6943 11.7525C20.0493 10.3613 18.5831 6.98629 18.8437 5.64004L18.8868 5.35879C19.1756 4.21129 19.1925 3.97129 18.7031 3.73504C18.5587 3.70879 17.5237 3.58316 17.1281 5.05879C17.0287 5.52941 17.1243 6.39004 17.2087 7.14941C17.2575 7.57879 17.3025 7.98566 17.3137 8.32504C17.3325 8.85941 17.0793 9.06379 16.9256 9.13879C16.6125 9.29066 16.2393 9.16129 16.0068 8.96629L15.9825 8.94379C15.8681 8.82004 13.1475 6.15191 11.3475 4.38566L9.99372 3.05629C9.53247 2.59316 8.9381 2.51629 8.53872 2.91566C8.34372 3.11066 8.2556 3.33941 8.27622 3.59254C8.29872 3.85691 8.44122 4.13254 8.67935 4.37066L13.2187 9.02629C13.3219 9.13237 13.3793 9.27471 13.3786 9.42268C13.3779 9.57065 13.3191 9.71244 13.215 9.81754C13.0068 10.0257 12.6393 10.0294 12.4256 9.82316L6.18372 3.73879C5.72247 3.27754 5.12622 3.20066 4.72872 3.60004C4.53372 3.79504 4.4456 4.02379 4.46622 4.27691C4.4906 4.54129 4.6331 4.81879 4.86935 5.05316L10.9875 11.3269C11.2031 11.5444 11.2012 11.9007 10.9837 12.1182C10.7756 12.3263 10.4081 12.33 10.1943 12.1238L5.09997 7.15691C4.63872 6.69191 4.04247 6.61691 3.64497 7.01629C3.15935 7.50191 3.4181 8.10379 3.7856 8.47316L8.76747 13.6182C8.87033 13.7238 8.92742 13.8657 8.92637 14.0131C8.92532 14.1605 8.8662 14.3015 8.76185 14.4057C8.55185 14.6157 8.1881 14.6175 7.97435 14.4132L4.85622 11.4169C4.59372 11.1525 4.29185 11.01 4.0031 11.01Z" fill="#EDA600"/>
  <path d="M15.8925 8.72632C14.8631 10.8282 14.9963 13.7701 16.5413 16.1307C16.7156 16.4494 17.0138 16.2938 16.8619 15.9657C14.9963 11.9738 16.9519 9.09757 16.9519 9.09757L15.8925 8.72632Z" fill="#EDA600"/>
  <path d="M11.8444 0.843804C12.4106 0.695679 13.0144 0.708804 13.6012 0.845679C14.1844 0.986304 14.7675 1.28255 15.2006 1.7663C15.6244 2.2463 15.885 2.82943 15.9731 3.44068C16.0556 4.0463 15.9787 4.67068 15.6919 5.18818C15.6581 4.60693 15.5569 4.07255 15.3862 3.57943C15.2981 3.3338 15.195 3.09943 15.0694 2.87818C14.9456 2.6588 14.7994 2.4413 14.6437 2.26318C14.3269 1.89755 13.8975 1.61255 13.4156 1.3913C12.9319 1.16255 12.405 0.993804 11.8444 0.843804Z" fill="#B0BEC5"/>
  <path d="M12 2.62124C12.3131 2.42249 12.705 2.38124 13.0744 2.44687C13.4475 2.51249 13.8038 2.69812 14.085 2.95499C14.3644 3.21562 14.5631 3.54374 14.6869 3.88499C14.7469 4.05562 14.7769 4.23562 14.805 4.40999C14.8144 4.58999 14.8144 4.76999 14.7863 4.94999C14.6569 4.81312 14.5556 4.67624 14.46 4.54312C14.3494 4.41749 14.2631 4.28437 14.1638 4.16249C13.9688 3.92062 13.7794 3.70124 13.575 3.50624C13.365 3.31687 13.1438 3.14999 12.8869 3.00562C12.6319 2.85749 12.345 2.73374 12 2.62124Z" fill="#90A4AE"/>
  <path d="M1.28062 14.5015C1.545 15.019 1.82062 15.499 2.14125 15.9227C2.46 16.3465 2.82562 16.7065 3.25125 16.9408C3.4575 17.0552 3.70312 17.1546 3.94312 17.2296C4.185 17.3065 4.43625 17.359 4.695 17.3946C5.2125 17.4583 5.75625 17.4471 6.33187 17.359C5.88562 17.7471 5.28937 17.9533 4.68187 17.9983C4.06687 18.0396 3.4425 17.9065 2.88375 17.5915C2.32125 17.2708 1.90875 16.7608 1.65 16.219C1.39125 15.6733 1.2525 15.0865 1.28062 14.5015Z" fill="#B0BEC5"/>
  <path d="M3.05248 14.282C3.23436 14.597 3.41436 14.8501 3.61123 15.0714C3.80623 15.2926 4.01623 15.4745 4.24498 15.6395C4.47748 15.7989 4.73248 15.9395 5.00998 16.0801C5.14873 16.1514 5.29686 16.2076 5.44311 16.2901C5.59498 16.3557 5.74873 16.4251 5.90998 16.5245C5.73936 16.5882 5.56498 16.6257 5.38686 16.6539C5.21061 16.6614 5.02873 16.6707 4.84873 16.6464C4.48873 16.5976 4.12873 16.472 3.81373 16.2526C3.50436 16.0295 3.24748 15.7201 3.10686 15.3695C2.96436 15.0207 2.92311 14.6307 3.05248 14.282Z" fill="#90A4AE"/>
  <defs>
  <radialGradient id="paint0_radial_1_149" cx="0" cy="0" r="1" gradientUnits="userSpaceOnUse" gradientTransform="translate(8.25871 7.12515) rotate(-45) scale(17.064)">
  <stop offset="0.353" stop-color="#FFCA28"/>
  <stop offset="0.872" stop-color="#FFB300"/>
  </radialGradient>
  </defs>
</g>

<!-- line -->
<path id = "line" d="M0 4C2.27042 4 2.92958 1 5.2 1C7.47042 1 8.12958 4 10.4 4C12.6704 4 13.3296 1 15.6 1C17.8704 1 18.5296 4 20.8 4C23.0704 4 23.7296 1 26 1C28.2704 1 28.9296 4 31.2 4C33.4704 4 34.1296 1 36.4 1C38.6704 1 39.3296 4 41.6 4C43.8704 4 44.5296 1 46.8 1C49.0704 1 49.7296 4 52 4" stroke="#111111"/>

<!-- twitter -->
<path id = "twitter" d="M16.5938 2.11719C16.1719 2.77344 15.6094 3.35937 14.9062 3.875V4.29688C14.9062 6.75781 14.0156 8.99609 12.2344 11.0117C10.4766 13.0039 8.13281 14 5.20312 14C3.32812 14 1.59375 13.4844 0 12.4531C0.375 12.5 0.644531 12.5234 0.808594 12.5234C2.37891 12.5234 3.78516 12.0312 5.02734 11.0469C4.30078 11.0234 3.64453 10.8008 3.05859 10.3789C2.47266 9.93359 2.07422 9.37109 1.86328 8.69141C2.14453 8.73828 2.35547 8.76172 2.49609 8.76172C2.73047 8.76172 3.03516 8.71484 3.41016 8.62109C2.63672 8.45703 1.98047 8.07031 1.44141 7.46094C0.925781 6.82812 0.667969 6.10156 0.667969 5.28125V5.24609C1.18359 5.52734 1.69922 5.66797 2.21484 5.66797C1.20703 5.01172 0.703125 4.0625 0.703125 2.82031C0.703125 2.23437 0.855469 1.67187 1.16016 1.13281C2.96484 3.35937 5.29688 4.54297 8.15625 4.68359C8.10938 4.51953 8.08594 4.26172 8.08594 3.91016C8.08594 2.94922 8.41406 2.14063 9.07031 1.48438C9.72656 0.828125 10.5352 0.5 11.4961 0.5C12.457 0.5 13.2773 0.863281 13.957 1.58984C14.6602 1.47266 15.3867 1.19141 16.1367 0.746094C15.9023 1.56641 15.3984 2.19922 14.625 2.64453C15.3516 2.57422 16.0078 2.39844 16.5938 2.11719Z" fill="#282828"/>

<!-- youtube -->
<path id = "youtube" d="M16.9004 3.07227C16.9668 4.26758 17 5.45182 17 6.625C17 7.79818 16.9668 8.98242 16.9004 10.1777C16.9004 10.9303 16.6569 11.5723 16.1699 12.1035C15.7051 12.6126 15.1296 12.8672 14.4434 12.8672C12.7389 12.9557 10.7578 13 8.5 13C6.24219 13 4.26107 12.9557 2.55664 12.8672C1.87044 12.8672 1.28385 12.6126 0.796875 12.1035C0.332031 11.5723 0.0996094 10.9303 0.0996094 10.1777C0.0332031 8.98242 0 7.79818 0 6.625C0 5.85026 0.0442708 4.66602 0.132812 3.07227C0.132812 2.31966 0.365234 1.6888 0.830078 1.17969C1.29492 0.648438 1.87044 0.382812 2.55664 0.382812C4.17253 0.294271 6.05404 0.25 8.20117 0.25H8.5H8.79883C10.946 0.25 12.8275 0.294271 14.4434 0.382812C15.1296 0.382812 15.7051 0.648438 16.1699 1.17969C16.6569 1.6888 16.9004 2.31966 16.9004 3.07227ZM6.87305 9.87891L11.6875 6.625L6.87305 3.33789V9.87891Z" fill="#282828"/>
</svg>