<svg width="37" height="64" viewBox="0 0 37 64" fill="none" xmlns="http://www.w3.org/2000/svg">
<path d="M19.5299 52.773C23.7897 52.773 27.3624 51.7166 30.2481 49.6039C33.151 47.4911 35.195 44.6312 36.3802 41.0241L29.3206 39.066C28.6335 41.2989 27.4741 43.0424 25.8423 44.2963C24.2105 45.5502 22.1064 46.1771 19.5299 46.1771C16.0087 46.1771 13.3549 45.0263 11.5685 42.7246C9.79929 40.4057 8.91469 37.3139 8.91469 33.4492C8.91469 29.5844 9.79929 26.5012 11.5685 24.1996C13.3549 21.8807 16.0087 20.7213 19.5299 20.7213C22.1064 20.7213 24.2105 21.3482 25.8423 22.6021C27.4741 23.8389 28.6335 25.5823 29.3206 27.8324L36.3802 25.8743C35.195 22.2672 33.151 19.4073 30.2481 17.2945C27.3624 15.1818 23.7897 14.1255 19.5299 14.1255C15.8197 14.1255 12.6163 14.9328 9.91953 16.5474C7.23997 18.162 5.17018 20.4207 3.71016 23.3236C2.26732 26.2264 1.5459 29.6016 1.5459 33.4492C1.5459 37.2968 2.26732 40.672 3.71016 43.5748C5.17018 46.4777 7.23997 48.7364 9.91953 50.351C12.6163 51.9656 15.8197 52.773 19.5299 52.773Z" fill="#E6E6E6"/>
<path d="M19.81 46.525C17.3017 46.525 15.1725 45.9708 13.4225 44.8625C11.6725 43.7542 10.3367 42.2142 9.415 40.2425C8.505 38.2708 8.05 35.99 8.05 33.4C8.05 30.81 8.505 28.5292 9.415 26.5575C10.3367 24.5858 11.6725 23.0458 13.4225 21.9375C15.1725 20.8292 17.3017 20.275 19.81 20.275C22.7267 20.275 25.1242 21.0158 27.0025 22.4975C28.8925 23.9792 30.1933 25.9742 30.905 28.4825L27.7375 29.3225C27.2242 27.4442 26.3083 25.9625 24.99 24.8775C23.6717 23.7925 21.945 23.25 19.81 23.25C17.9317 23.25 16.3683 23.6758 15.12 24.5275C13.8717 25.3792 12.9325 26.5692 12.3025 28.0975C11.6725 29.6142 11.3517 31.3817 11.34 33.4C11.3283 35.4067 11.6375 37.1742 12.2675 38.7025C12.8975 40.2192 13.8425 41.4092 15.1025 42.2725C16.3625 43.1242 17.9317 43.55 19.81 43.55C21.945 43.55 23.6717 43.0075 24.99 41.9225C26.3083 40.8258 27.2242 39.3442 27.7375 37.4775L30.905 38.3175C30.1933 40.8142 28.8925 42.8092 27.0025 44.3025C25.1242 45.7842 22.7267 46.525 19.81 46.525Z" fill="#111111"/>
</svg>
