<svg width="17" height="15" viewBox="0 0 17 15" fill="none" xmlns="http://www.w3.org/2000/svg">
<path d="M10.5225 14.46L16.46 8.52246C16.695 8.2998 16.8125 8.02148 16.8125 7.6875C16.8125 7.35352 16.695 7.0752 16.46 6.85254L10.5225 0.915039C10.2998 0.680013 10.0215 0.5625 9.6875 0.5625C9.35352 0.5625 9.0752 0.680013 8.85254 0.915039C8.61751 1.1377 8.5 1.41602 8.5 1.75C8.5 2.08398 8.61751 2.3623 8.85254 2.58496L12.749 6.5H1.375C1.04102 6.5 0.75651 6.61751 0.521484 6.85254C0.298828 7.0752 0.1875 7.35352 0.1875 7.6875C0.1875 8.02148 0.298828 8.30599 0.521484 8.54102C0.75651 8.76367 1.04102 8.875 1.375 8.875H12.749L8.85254 12.79C8.72884 12.9014 8.63607 13.0312 8.57422 13.1797C8.52474 13.3281 8.5 13.4766 8.5 13.625C8.5 13.7734 8.52474 13.9219 8.57422 14.0703C8.63607 14.2188 8.72884 14.3486 8.85254 14.46C9.0752 14.695 9.35352 14.8125 9.6875 14.8125C10.0215 14.8125 10.2998 14.695 10.5225 14.46Z" fill="white"/>
</svg>
