<svg width="15" height="15" viewBox="0 0 15 15" fill="none" xmlns="http://www.w3.org/2000/svg">
<path d="M13.0996 0.75C13.4212 0.75 13.6934 0.861328 13.916 1.08398C14.1387 1.2819 14.25 1.54167 14.25 1.86328V13.7754C14.25 14.097 14.1387 14.3815 13.916 14.6289C13.6934 14.8763 13.4212 15 13.0996 15H1.22461C0.902995 15 0.61849 14.8763 0.371094 14.6289C0.123698 14.3815 0 14.097 0 13.7754V1.86328C0 1.54167 0.111328 1.2819 0.333984 1.08398C0.58138 0.861328 0.878255 0.75 1.22461 0.75H13.0996ZM4.41602 12.625V6.2793H2.375V12.625H4.41602ZM2.67188 5.01758C2.86979 5.21549 3.12956 5.31445 3.45117 5.31445C3.77279 5.31445 4.03255 5.21549 4.23047 5.01758C4.45312 4.79492 4.56445 4.53516 4.56445 4.23828C4.56445 3.91667 4.46549 3.6569 4.26758 3.45898C4.06966 3.23633 3.8099 3.125 3.48828 3.125C3.16667 3.125 2.89453 3.23633 2.67188 3.45898C2.47396 3.6569 2.375 3.91667 2.375 4.23828C2.375 4.53516 2.47396 4.79492 2.67188 5.01758ZM11.875 12.625V8.91406C11.875 7.9987 11.6523 7.30599 11.207 6.83594C10.7865 6.36589 10.2298 6.13086 9.53711 6.13086C8.79492 6.13086 8.17643 6.47721 7.68164 7.16992V6.2793H5.64062V12.625H7.68164V9.02539C7.68164 8.77799 7.70638 8.60482 7.75586 8.50586C7.95378 8.01107 8.30013 7.76367 8.79492 7.76367C9.48763 7.76367 9.83398 8.22135 9.83398 9.13672V12.625H11.875Z" fill="#282828"/>
</svg>
