<svg width="17" height="13" viewBox="0 0 17 13" fill="none" xmlns="http://www.w3.org/2000/svg">
<path d="M16.9004 3.07227C16.9668 4.26758 17 5.45182 17 6.625C17 7.79818 16.9668 8.98242 16.9004 10.1777C16.9004 10.9303 16.6569 11.5723 16.1699 12.1035C15.7051 12.6126 15.1296 12.8672 14.4434 12.8672C12.7389 12.9557 10.7578 13 8.5 13C6.24219 13 4.26107 12.9557 2.55664 12.8672C1.87044 12.8672 1.28385 12.6126 0.796875 12.1035C0.332031 11.5723 0.0996094 10.9303 0.0996094 10.1777C0.0332031 8.98242 0 7.79818 0 6.625C0 5.85026 0.0442708 4.66602 0.132812 3.07227C0.132812 2.31966 0.365234 1.6888 0.830078 1.17969C1.29492 0.648438 1.87044 0.382812 2.55664 0.382812C4.17253 0.294271 6.05404 0.25 8.20117 0.25H8.5H8.79883C10.946 0.25 12.8275 0.294271 14.4434 0.382812C15.1296 0.382812 15.7051 0.648438 16.1699 1.17969C16.6569 1.6888 16.9004 2.31966 16.9004 3.07227ZM6.87305 9.87891L11.6875 6.625L6.87305 3.33789V9.87891Z" fill="#282828"/>
</svg>
